HIERARCHY
ROOT joint_0
{
	OFFSET 0.000000 0.000000 0.000000
	CHANNELS 6 Xposition Yposition Zposition Zrotation Yrotation Xrotation 
	JOINT joint_1
	{
		OFFSET 4.520508 -1.939880 86.268921
		CHANNELS 3 Zrotation Yrotation Xrotation
		JOINT joint_2
		{
			OFFSET -4.459717 -0.438538 78.934082
			CHANNELS 3 Zrotation Yrotation Xrotation
			JOINT joint_3
			{
				OFFSET -5.197754 -0.781128 78.796997
				CHANNELS 3 Zrotation Yrotation Xrotation
				JOINT joint_4
				{
					OFFSET 2.952026 -3.710571 109.812988
					CHANNELS 3 Zrotation Yrotation Xrotation
					JOINT joint_5
					{
						OFFSET 24.716797 -5.488037 87.903931
						CHANNELS 3 Zrotation Yrotation Xrotation
						End Site
						{
							OFFSET 0.000000 0.000000 0.000000
						}
					}
				}
				JOINT joint_6
				{
					OFFSET -3.154419 -25.484680 60.934937
					CHANNELS 3 Zrotation Yrotation Xrotation
					JOINT joint_7
					{
						OFFSET -28.997192 -144.472229 -32.671997
						CHANNELS 3 Zrotation Yrotation Xrotation
						JOINT joint_8
						{
							OFFSET 19.867676 -18.614380 -249.897949
							CHANNELS 3 Zrotation Yrotation Xrotation
							JOINT joint_9
							{
								OFFSET 5.281982 -13.816650 -264.993042
								CHANNELS 3 Zrotation Yrotation Xrotation
								End Site
								{
									OFFSET 0.000000 0.000000 0.000000
								}
							}
						}
					}
				}
				JOINT joint_10
				{
					OFFSET 6.494995 21.336792 62.257935
					CHANNELS 3 Zrotation Yrotation Xrotation
					JOINT joint_11
					{
						OFFSET 31.106567 145.200745 -27.007935
						CHANNELS 3 Zrotation Yrotation Xrotation
						JOINT joint_12
						{
							OFFSET 29.119141 24.684326 -248.460083
							CHANNELS 3 Zrotation Yrotation Xrotation
							JOINT joint_13
							{
								OFFSET 21.220093 31.248413 -262.703979
								CHANNELS 3 Zrotation Yrotation Xrotation
								End Site
								{
									OFFSET 0.000000 0.000000 0.000000
								}
							}
						}
					}
				}
			}
		}
	}
	JOINT joint_14
	{
		OFFSET -15.458496 -88.861694 -109.593018
		CHANNELS 3 Zrotation Yrotation Xrotation
		JOINT joint_15
		{
			OFFSET -6.193359 6.837952 -506.710999
			CHANNELS 3 Zrotation Yrotation Xrotation
			JOINT joint_16
			{
				OFFSET -35.096680 13.289795 -435.677025
				CHANNELS 3 Zrotation Yrotation Xrotation
				JOINT joint_17
				{
					OFFSET 158.491211 -33.916565 -71.771002
					CHANNELS 3 Zrotation Yrotation Xrotation
					End Site
					{
						OFFSET 0.000000 0.000000 0.000000
					}
				}
			}
		}
	}
	JOINT joint_18
	{
		OFFSET 23.116943 86.574158 -110.082031
		CHANNELS 3 Zrotation Yrotation Xrotation
		JOINT joint_19
		{
			OFFSET -6.125854 -0.283569 -506.757019
			CHANNELS 3 Zrotation Yrotation Xrotation
			JOINT joint_20
			{
				OFFSET -63.240234 11.589966 -432.537994
				CHANNELS 3 Zrotation Yrotation Xrotation
				JOINT joint_21
				{
					OFFSET 156.074219 -41.487305 -73.077999
					CHANNELS 3 Zrotation Yrotation Xrotation
					End Site
					{
						OFFSET 0.000000 0.000000 0.000000
					}
				}
			}
		}
	}
}
MOTION
Frames: 15
Frame Time: 0.016667
-1309.160156 839.170471 1140.829956 4.219737 0.391674 0.177685 -0.138084 -0.844554 -0.293174 -0.109501 0.166843 0.056033 -0.118903 -0.148600 -0.042716 0.205827 0.259931 -0.677024 0.000000 0.000000 0.000000 -0.163129 0.586875 -0.805861 0.179310 0.053729 1.466428 -0.053782 0.635433 -0.923747 0.000000 0.000000 0.000000 0.506657 0.168736 0.833977 -0.107527 0.413609 -0.841634 0.248765 0.912804 1.769900 0.000000 0.000000 0.000000 0.508507 2.029881 -2.458097 0.421690 -3.821499 -1.009411 0.489283 2.212934 0.694817 0.000000 0.000000 0.000000 0.335623 1.813107 1.811953 0.375139 -3.031056 -0.614482 0.349500 0.724337 0.355714 0.000000 0.000000 0.000000 
-1309.083008 839.190430 1140.833984 4.221365 0.397196 0.176804 -0.140520 -0.852426 -0.298302 -0.111513 0.168813 0.056940 -0.121041 -0.150103 -0.043214 0.199834 0.265006 -0.654458 0.000000 0.000000 0.000000 -0.160671 0.588066 -0.816772 0.178451 0.055075 1.458494 -0.053731 0.635582 -0.921097 0.000000 0.000000 0.000000 0.503688 0.171700 0.838652 -0.107072 0.418569 -0.843332 0.248001 0.909948 1.764309 0.000000 0.000000 0.000000 0.507722 2.028470 -2.457947 0.420920 -3.821685 -1.009109 0.488564 2.212042 0.694300 0.000000 0.000000 0.000000 0.335227 1.814079 1.814005 0.374853 -3.037090 -0.618264 0.348910 0.726022 0.355886 0.000000 0.000000 0.000000 
-1309.001953 839.211548 1140.840942 4.222688 0.402669 0.176754 -0.144390 -0.859486 -0.302899 -0.115019 0.170704 0.057522 -0.124654 -0.152151 -0.043698 0.194546 0.271069 -0.634200 0.000000 0.000000 0.000000 -0.157163 0.588862 -0.826384 0.177353 0.057077 1.448058 -0.053484 0.631665 -0.919856 0.000000 0.000000 0.000000 0.501687 0.175336 0.843902 -0.106710 0.424540 -0.846944 0.247191 0.907166 1.757985 0.000000 0.000000 0.000000 0.507199 2.026845 -2.458718 0.420426 -3.820931 -1.009061 0.488063 2.211908 0.694044 0.000000 0.000000 0.000000 0.334775 1.815623 1.815155 0.374499 -3.043797 -0.622023 0.348268 0.728955 0.356366 0.000000 0.000000 0.000000 
-1308.917725 839.227905 1140.845947 4.222287 0.407297 0.176351 -0.148057 -0.863979 -0.305953 -0.118553 0.171059 0.056175 -0.128027 -0.152887 -0.042456 0.190650 0.275459 -0.619291 0.000000 0.000000 0.000000 -0.154305 0.588643 -0.837405 0.176514 0.057328 1.438862 -0.053406 0.631058 -0.918083 0.000000 0.000000 0.000000 0.499006 0.178355 0.848985 -0.106460 0.430048 -0.850954 0.246493 0.904871 1.752384 0.000000 0.000000 0.000000 0.507387 2.026126 -2.458605 0.420650 -3.820047 -1.009712 0.488183 2.210700 0.693839 0.000000 0.000000 0.000000 0.334857 1.817735 1.816740 0.374675 -3.049006 -0.625415 0.348133 0.730625 0.356746 0.000000 0.000000 0.000000 
-1308.830933 839.235291 1140.848999 4.219345 0.410792 0.175448 -0.150907 -0.866740 -0.309601 -0.121150 0.173249 0.056486 -0.130681 -0.153370 -0.042655 0.187665 0.276266 -0.608427 0.000000 0.000000 0.000000 -0.153738 0.586308 -0.847861 0.175801 0.055008 1.429777 -0.053532 0.635310 -0.913440 0.000000 0.000000 0.000000 0.493814 0.180255 0.855329 -0.106321 0.435197 -0.855162 0.245879 0.902411 1.748098 0.000000 0.000000 0.000000 0.508269 2.026488 -2.456800 0.421575 -3.819189 -1.011789 0.488870 2.209548 0.693902 0.000000 0.000000 0.000000 0.335762 1.820948 1.818599 0.375662 -3.052763 -0.627318 0.348931 0.730188 0.357002 0.000000 0.000000 0.000000 
-1308.741943 839.237854 1140.852051 4.215159 0.413325 0.174129 -0.153228 -0.866039 -0.312334 -0.123291 0.172859 0.057287 -0.132944 -0.153011 -0.043788 0.185772 0.277620 -0.601349 0.000000 0.000000 0.000000 -0.154727 0.583307 -0.857489 0.175158 0.051830 1.420649 -0.053784 0.642139 -0.908113 0.000000 0.000000 0.000000 0.486352 0.181785 0.861806 -0.106153 0.440360 -0.859039 0.245359 0.900422 1.744313 0.000000 0.000000 0.000000 0.509697 2.027970 -2.454000 0.423042 -3.818436 -1.014475 0.490037 2.208320 0.694166 0.000000 0.000000 0.000000 0.337110 1.824660 1.820841 0.377088 -3.054781 -0.628551 0.350178 0.729046 0.357280 0.000000 0.000000 0.000000 
-1308.649902 839.237549 1140.854980 4.209305 0.415983 0.172857 -0.154579 -0.865413 -0.315265 -0.124420 0.172533 0.058587 -0.134211 -0.153528 -0.044531 0.185169 0.279643 -0.598738 0.000000 0.000000 0.000000 -0.154456 0.582032 -0.866947 0.174483 0.050356 1.413248 -0.053952 0.647470 -0.902587 0.000000 0.000000 0.000000 0.480107 0.182735 0.867389 -0.106030 0.444305 -0.861920 0.245085 0.899489 1.742111 0.000000 0.000000 0.000000 0.511664 2.029677 -2.451586 0.425018 -3.818608 -1.016377 0.491793 2.207369 0.694756 0.000000 0.000000 0.000000 0.338861 1.827408 1.823451 0.378917 -3.054354 -0.630275 0.351656 0.727128 0.357459 0.000000 0.000000 0.000000 
-1308.554810 839.239380 1140.857056 4.202555 0.419443 0.171752 -0.154377 -0.866526 -0.317180 -0.124071 0.171614 0.059229 -0.133879 -0.152851 -0.044366 0.186014 0.282612 -0.601094 0.000000 0.000000 0.000000 -0.153277 0.583149 -0.876655 0.173811 0.050926 1.408358 -0.053974 0.650022 -0.897303 0.000000 0.000000 0.000000 0.473211 0.182100 0.870944 -0.105952 0.446016 -0.863265 0.245243 0.901231 1.741408 0.000000 0.000000 0.000000 0.513543 2.031173 -2.450566 0.426854 -3.820046 -1.016089 0.493632 2.206943 0.695494 0.000000 0.000000 0.000000 0.341102 1.827072 1.826376 0.381228 -3.048957 -0.633154 0.353272 0.723865 0.357346 0.000000 0.000000 0.000000 
-1308.456787 839.240356 1140.859985 4.194339 0.423073 0.170543 -0.153752 -0.868683 -0.317468 -0.123399 0.171910 0.059378 -0.133291 -0.153518 -0.045376 0.187784 0.287105 -0.606426 0.000000 0.000000 0.000000 -0.148772 0.585706 -0.884891 0.173024 0.053762 1.404703 -0.053920 0.651263 -0.891739 0.000000 0.000000 0.000000 0.469217 0.181112 0.874169 -0.105819 0.446418 -0.862961 0.245601 0.904162 1.741510 0.000000 0.000000 0.000000 0.516130 2.032881 -2.449949 0.429365 -3.822309 -1.014952 0.496229 2.207101 0.696701 0.000000 0.000000 0.000000 0.344035 1.825547 1.829517 0.384227 -3.040817 -0.636147 0.355426 0.720125 0.357356 0.000000 0.000000 0.000000 
-1308.352295 839.234680 1140.863037 4.184912 0.427464 0.169930 -0.151939 -0.873935 -0.319852 -0.121304 0.172816 0.061048 -0.131367 -0.154550 -0.046015 0.190001 0.292316 -0.613194 0.000000 0.000000 0.000000 -0.145372 0.589879 -0.893126 0.172333 0.057572 1.402892 -0.053951 0.654061 -0.886023 0.000000 0.000000 0.000000 0.464940 0.180233 0.878108 -0.105556 0.446941 -0.861636 0.245839 0.906301 1.741272 0.000000 0.000000 0.000000 0.518978 2.033415 -2.449602 0.432167 -3.823393 -1.013909 0.499040 2.206251 0.697788 0.000000 0.000000 0.000000 0.347078 1.824603 1.832530 0.387346 -3.034535 -0.639496 0.357712 0.715955 0.357314 0.000000 0.000000 0.000000 
-1308.238403 839.218445 1140.865967 4.173540 0.432060 0.170282 -0.149502 -0.883120 -0.323638 -0.118455 0.174705 0.062901 -0.128778 -0.155610 -0.047683 0.192642 0.297787 -0.621426 0.000000 0.000000 0.000000 -0.140095 0.595353 -0.899884 0.171763 0.062931 1.403302 -0.054160 0.660070 -0.880318 0.000000 0.000000 0.000000 0.463828 0.179673 0.885238 -0.105054 0.447575 -0.858703 0.245812 0.907227 1.739473 0.000000 0.000000 0.000000 0.522997 2.033761 -2.449403 0.436166 -3.823792 -1.013958 0.502889 2.204387 0.699126 0.000000 0.000000 0.000000 0.350849 1.826245 1.835355 0.391216 -3.032200 -0.643401 0.360771 0.710938 0.357406 0.000000 0.000000 0.000000 
-1308.119019 839.196533 1140.869019 4.160781 0.436893 0.170945 -0.145969 -0.894355 -0.327389 -0.114548 0.177793 0.063722 -0.125059 -0.159152 -0.048766 0.195778 0.305894 -0.630847 0.000000 0.000000 0.000000 -0.134912 0.602769 -0.906114 0.171215 0.069976 1.405398 -0.054455 0.667750 -0.874291 0.000000 0.000000 0.000000 0.462778 0.179901 0.893319 -0.104285 0.448902 -0.854217 0.245639 0.907428 1.736898 0.000000 0.000000 0.000000 0.527446 2.033447 -2.449242 0.440620 -3.823091 -1.014053 0.507123 2.202047 0.700537 0.000000 0.000000 0.000000 0.355188 1.829011 1.838190 0.395666 -3.031630 -0.647479 0.364414 0.705448 0.357646 0.000000 0.000000 0.000000 
-1307.997925 839.176636 1140.870972 4.149420 0.440453 0.170751 -0.142724 -0.902764 -0.329405 -0.111108 0.178100 0.063838 -0.121660 -0.160462 -0.049017 0.198877 0.311468 -0.640694 0.000000 0.000000 0.000000 -0.129401 0.609815 -0.911782 0.170525 0.077098 1.406347 -0.054682 0.674322 -0.867855 0.000000 0.000000 0.000000 0.462250 0.179428 0.900215 -0.103495 0.448920 -0.848505 0.245553 0.908253 1.734490 0.000000 0.000000 0.000000 0.531210 2.034580 -2.448171 0.444383 -3.822023 -1.013990 0.510686 2.199674 0.701638 0.000000 0.000000 0.000000 0.358739 1.832716 1.841021 0.399305 -3.030216 -0.649701 0.367528 0.699493 0.357515 0.000000 0.000000 0.000000 
-1307.872925 839.161011 1140.871948 4.140576 0.442624 0.169038 -0.141011 -0.910567 -0.328891 -0.109350 0.180512 0.063664 -0.119891 -0.162293 -0.048442 0.202041 0.314466 -0.651343 0.000000 0.000000 0.000000 -0.121085 0.616182 -0.916019 0.169348 0.085253 1.403897 -0.054747 0.678657 -0.859684 0.000000 0.000000 0.000000 0.464626 0.178860 0.904616 -0.102658 0.447407 -0.841053 0.245589 0.909798 1.732580 0.000000 0.000000 0.000000 0.533810 2.036981 -2.445552 0.446990 -3.819572 -1.013330 0.513125 2.197954 0.702371 0.000000 0.000000 0.000000 0.361239 1.837000 1.843837 0.401856 -3.026962 -0.648776 0.369992 0.693290 0.357014 0.000000 0.000000 0.000000 
-1307.747192 839.148376 1140.871948 4.132387 0.443304 0.166352 -0.139463 -0.915291 -0.325637 -0.108000 0.181270 0.062580 -0.118494 -0.163537 -0.048512 0.205204 0.316840 -0.662123 0.000000 0.000000 0.000000 -0.111702 0.622198 -0.919039 0.168022 0.093774 1.400459 -0.054754 0.682082 -0.851094 0.000000 0.000000 0.000000 0.467834 0.177803 0.908413 -0.101783 0.444848 -0.832299 0.245746 0.911967 1.731282 0.000000 0.000000 0.000000 0.535631 2.040854 -2.442176 0.448801 -3.816654 -1.011885 0.514834 2.196377 0.702805 0.000000 0.000000 0.000000 0.363557 1.842655 1.846720 0.404207 -3.023094 -0.646068 0.372501 0.686324 0.356331 0.000000 0.000000 0.000000 
